<svg xmlns="http://www.w3.org/2000/svg" xmlns:xlink="http://www.w3.org/1999/xlink" width="600" height="400" viewBox="0 0 2400 1600">
<defs>
  <clipPath id="clip640">
    <rect x="0" y="0" width="2400" height="1600"></rect>
  </clipPath>
</defs>
<path clip-path="url(#clip640)" d="M0 1600 L2400 1600 L2400 8.88178e-14 L0 8.88178e-14  Z" fill="#ffffff" fill-rule="evenodd" fill-opacity="1"></path>
<defs>
  <clipPath id="clip641">
    <rect x="480" y="0" width="1681" height="1600"></rect>
  </clipPath>
</defs>
<path clip-path="url(#clip640)" d="M174.149 1423.18 L2352.76 1423.18 L2352.76 123.472 L174.149 123.472  Z" fill="#ffffff" fill-rule="evenodd" fill-opacity="1"></path>
<defs>
  <clipPath id="clip642">
    <rect x="174" y="123" width="2180" height="1301"></rect>
  </clipPath>
</defs>
<polyline clip-path="url(#clip642)" style="stroke:#000000; stroke-linecap:round; stroke-linejoin:round; stroke-width:2; stroke-opacity:0.1; fill:none" points="235.808,1423.18 235.808,123.472 "></polyline>
<polyline clip-path="url(#clip642)" style="stroke:#000000; stroke-linecap:round; stroke-linejoin:round; stroke-width:2; stroke-opacity:0.1; fill:none" points="767.414,1423.18 767.414,123.472 "></polyline>
<polyline clip-path="url(#clip642)" style="stroke:#000000; stroke-linecap:round; stroke-linejoin:round; stroke-width:2; stroke-opacity:0.1; fill:none" points="1299.02,1423.18 1299.02,123.472 "></polyline>
<polyline clip-path="url(#clip642)" style="stroke:#000000; stroke-linecap:round; stroke-linejoin:round; stroke-width:2; stroke-opacity:0.1; fill:none" points="1830.63,1423.18 1830.63,123.472 "></polyline>
<polyline clip-path="url(#clip640)" style="stroke:#000000; stroke-linecap:round; stroke-linejoin:round; stroke-width:4; stroke-opacity:1; fill:none" points="174.149,1423.18 2352.76,1423.18 "></polyline>
<polyline clip-path="url(#clip640)" style="stroke:#000000; stroke-linecap:round; stroke-linejoin:round; stroke-width:4; stroke-opacity:1; fill:none" points="235.808,1423.18 235.808,1404.28 "></polyline>
<polyline clip-path="url(#clip640)" style="stroke:#000000; stroke-linecap:round; stroke-linejoin:round; stroke-width:4; stroke-opacity:1; fill:none" points="767.414,1423.18 767.414,1404.28 "></polyline>
<polyline clip-path="url(#clip640)" style="stroke:#000000; stroke-linecap:round; stroke-linejoin:round; stroke-width:4; stroke-opacity:1; fill:none" points="1299.02,1423.18 1299.02,1404.28 "></polyline>
<polyline clip-path="url(#clip640)" style="stroke:#000000; stroke-linecap:round; stroke-linejoin:round; stroke-width:4; stroke-opacity:1; fill:none" points="1830.63,1423.18 1830.63,1404.28 "></polyline>
<path clip-path="url(#clip640)" d="M235.808 1454.1 Q232.197 1454.1 230.368 1457.66 Q228.562 1461.2 228.562 1468.33 Q228.562 1475.44 230.368 1479.01 Q232.197 1482.55 235.808 1482.55 Q239.442 1482.55 241.247 1479.01 Q243.076 1475.44 243.076 1468.33 Q243.076 1461.2 241.247 1457.66 Q239.442 1454.1 235.808 1454.1 M235.808 1450.39 Q241.618 1450.39 244.673 1455 Q247.752 1459.58 247.752 1468.33 Q247.752 1477.06 244.673 1481.67 Q241.618 1486.25 235.808 1486.25 Q229.997 1486.25 226.919 1481.67 Q223.863 1477.06 223.863 1468.33 Q223.863 1459.58 226.919 1455 Q229.997 1450.39 235.808 1450.39 Z" fill="#000000" fill-rule="nonzero" fill-opacity="1"></path><path clip-path="url(#clip640)" d="M757.796 1481.64 L765.434 1481.64 L765.434 1455.28 L757.124 1456.95 L757.124 1452.69 L765.388 1451.02 L770.064 1451.02 L770.064 1481.64 L777.703 1481.64 L777.703 1485.58 L757.796 1485.58 L757.796 1481.64 Z" fill="#000000" fill-rule="nonzero" fill-opacity="1"></path><path clip-path="url(#clip640)" d="M1293.67 1481.64 L1309.99 1481.64 L1309.99 1485.58 L1288.05 1485.58 L1288.05 1481.64 Q1290.71 1478.89 1295.29 1474.26 Q1299.9 1469.61 1301.08 1468.27 Q1303.33 1465.74 1304.2 1464.01 Q1305.11 1462.25 1305.11 1460.56 Q1305.11 1457.8 1303.16 1456.07 Q1301.24 1454.33 1298.14 1454.33 Q1295.94 1454.33 1293.49 1455.09 Q1291.06 1455.86 1288.28 1457.41 L1288.28 1452.69 Q1291.1 1451.55 1293.56 1450.97 Q1296.01 1450.39 1298.05 1450.39 Q1303.42 1450.39 1306.61 1453.08 Q1309.81 1455.77 1309.81 1460.26 Q1309.81 1462.39 1309 1464.31 Q1308.21 1466.2 1306.1 1468.8 Q1305.52 1469.47 1302.42 1472.69 Q1299.32 1475.88 1293.67 1481.64 Z" fill="#000000" fill-rule="nonzero" fill-opacity="1"></path><path clip-path="url(#clip640)" d="M1834.87 1466.95 Q1838.23 1467.66 1840.1 1469.93 Q1842 1472.2 1842 1475.53 Q1842 1480.65 1838.48 1483.45 Q1834.97 1486.25 1828.48 1486.25 Q1826.31 1486.25 1823.99 1485.81 Q1821.7 1485.39 1819.25 1484.54 L1819.25 1480.02 Q1821.19 1481.16 1823.51 1481.74 Q1825.82 1482.32 1828.35 1482.32 Q1832.74 1482.32 1835.04 1480.58 Q1837.35 1478.84 1837.35 1475.53 Q1837.35 1472.48 1835.2 1470.77 Q1833.07 1469.03 1829.25 1469.03 L1825.22 1469.03 L1825.22 1465.19 L1829.43 1465.19 Q1832.88 1465.19 1834.71 1463.82 Q1836.54 1462.43 1836.54 1459.84 Q1836.54 1457.18 1834.64 1455.77 Q1832.77 1454.33 1829.25 1454.33 Q1827.33 1454.33 1825.13 1454.75 Q1822.93 1455.16 1820.29 1456.04 L1820.29 1451.88 Q1822.95 1451.14 1825.27 1450.77 Q1827.6 1450.39 1829.66 1450.39 Q1834.99 1450.39 1838.09 1452.83 Q1841.19 1455.23 1841.19 1459.35 Q1841.19 1462.22 1839.55 1464.21 Q1837.91 1466.18 1834.87 1466.95 Z" fill="#000000" fill-rule="nonzero" fill-opacity="1"></path><path clip-path="url(#clip640)" d="M1280.07 1532.4 L1267.18 1549.74 L1280.74 1568.04 L1273.83 1568.04 L1263.45 1554.04 L1253.08 1568.04 L1246.17 1568.04 L1260.01 1549.39 L1247.35 1532.4 L1254.25 1532.4 L1263.71 1545.1 L1273.16 1532.4 L1280.07 1532.4 Z" fill="#000000" fill-rule="nonzero" fill-opacity="1"></path><polyline clip-path="url(#clip642)" style="stroke:#000000; stroke-linecap:round; stroke-linejoin:round; stroke-width:2; stroke-opacity:0.1; fill:none" points="174.149,1386.4 2352.76,1386.4 "></polyline>
<polyline clip-path="url(#clip642)" style="stroke:#000000; stroke-linecap:round; stroke-linejoin:round; stroke-width:2; stroke-opacity:0.1; fill:none" points="174.149,992.808 2352.76,992.808 "></polyline>
<polyline clip-path="url(#clip642)" style="stroke:#000000; stroke-linecap:round; stroke-linejoin:round; stroke-width:2; stroke-opacity:0.1; fill:none" points="174.149,599.22 2352.76,599.22 "></polyline>
<polyline clip-path="url(#clip642)" style="stroke:#000000; stroke-linecap:round; stroke-linejoin:round; stroke-width:2; stroke-opacity:0.1; fill:none" points="174.149,205.633 2352.76,205.633 "></polyline>
<polyline clip-path="url(#clip640)" style="stroke:#000000; stroke-linecap:round; stroke-linejoin:round; stroke-width:4; stroke-opacity:1; fill:none" points="174.149,1423.18 174.149,123.472 "></polyline>
<polyline clip-path="url(#clip640)" style="stroke:#000000; stroke-linecap:round; stroke-linejoin:round; stroke-width:4; stroke-opacity:1; fill:none" points="174.149,1386.4 193.047,1386.4 "></polyline>
<polyline clip-path="url(#clip640)" style="stroke:#000000; stroke-linecap:round; stroke-linejoin:round; stroke-width:4; stroke-opacity:1; fill:none" points="174.149,992.808 193.047,992.808 "></polyline>
<polyline clip-path="url(#clip640)" style="stroke:#000000; stroke-linecap:round; stroke-linejoin:round; stroke-width:4; stroke-opacity:1; fill:none" points="174.149,599.22 193.047,599.22 "></polyline>
<polyline clip-path="url(#clip640)" style="stroke:#000000; stroke-linecap:round; stroke-linejoin:round; stroke-width:4; stroke-opacity:1; fill:none" points="174.149,205.633 193.047,205.633 "></polyline>
<path clip-path="url(#clip640)" d="M126.205 1372.19 Q122.593 1372.19 120.765 1375.76 Q118.959 1379.3 118.959 1386.43 Q118.959 1393.54 120.765 1397.1 Q122.593 1400.64 126.205 1400.64 Q129.839 1400.64 131.644 1397.1 Q133.473 1393.54 133.473 1386.43 Q133.473 1379.3 131.644 1375.76 Q129.839 1372.19 126.205 1372.19 M126.205 1368.49 Q132.015 1368.49 135.07 1373.1 Q138.149 1377.68 138.149 1386.43 Q138.149 1395.16 135.07 1399.76 Q132.015 1404.35 126.205 1404.35 Q120.394 1404.35 117.316 1399.76 Q114.26 1395.16 114.26 1386.43 Q114.26 1377.68 117.316 1373.1 Q120.394 1368.49 126.205 1368.49 Z" fill="#000000" fill-rule="nonzero" fill-opacity="1"></path><path clip-path="url(#clip640)" d="M118.242 1006.15 L125.88 1006.15 L125.88 979.787 L117.57 981.454 L117.57 977.195 L125.834 975.528 L130.51 975.528 L130.51 1006.15 L138.149 1006.15 L138.149 1010.09 L118.242 1010.09 L118.242 1006.15 Z" fill="#000000" fill-rule="nonzero" fill-opacity="1"></path><path clip-path="url(#clip640)" d="M121.83 612.565 L138.149 612.565 L138.149 616.5 L116.205 616.5 L116.205 612.565 Q118.867 609.811 123.45 605.181 Q128.056 600.528 129.237 599.186 Q131.482 596.663 132.362 594.926 Q133.265 593.167 133.265 591.477 Q133.265 588.723 131.32 586.987 Q129.399 585.251 126.297 585.251 Q124.098 585.251 121.644 586.014 Q119.214 586.778 116.436 588.329 L116.436 583.607 Q119.26 582.473 121.714 581.894 Q124.168 581.315 126.205 581.315 Q131.575 581.315 134.769 584.001 Q137.964 586.686 137.964 591.176 Q137.964 593.306 137.154 595.227 Q136.367 597.125 134.26 599.718 Q133.681 600.389 130.58 603.607 Q127.478 606.801 121.83 612.565 Z" fill="#000000" fill-rule="nonzero" fill-opacity="1"></path><path clip-path="url(#clip640)" d="M131.019 204.279 Q134.376 204.996 136.251 207.265 Q138.149 209.533 138.149 212.866 Q138.149 217.982 134.63 220.783 Q131.112 223.584 124.63 223.584 Q122.455 223.584 120.14 223.144 Q117.848 222.728 115.394 221.871 L115.394 217.357 Q117.339 218.491 119.654 219.07 Q121.968 219.649 124.492 219.649 Q128.89 219.649 131.181 217.913 Q133.496 216.177 133.496 212.866 Q133.496 209.811 131.343 208.098 Q129.214 206.362 125.394 206.362 L121.367 206.362 L121.367 202.519 L125.58 202.519 Q129.029 202.519 130.857 201.154 Q132.686 199.765 132.686 197.172 Q132.686 194.51 130.788 193.098 Q128.913 191.663 125.394 191.663 Q123.473 191.663 121.274 192.08 Q119.075 192.496 116.436 193.376 L116.436 189.209 Q119.098 188.468 121.413 188.098 Q123.751 187.728 125.811 187.728 Q131.135 187.728 134.237 190.158 Q137.339 192.566 137.339 196.686 Q137.339 199.556 135.695 201.547 Q134.052 203.515 131.019 204.279 Z" fill="#000000" fill-rule="nonzero" fill-opacity="1"></path><path clip-path="url(#clip640)" d="M67.3143 771.639 Q73.68 774.122 75.6216 776.477 Q77.5631 778.832 77.5631 782.779 L77.5631 787.458 L72.6615 787.458 L72.6615 784.02 Q72.6615 781.601 71.5157 780.265 Q70.3699 778.928 66.1048 777.305 L63.4312 776.254 L28.3562 790.673 L28.3562 784.466 L56.238 773.326 L28.3562 762.186 L28.3562 755.979 L67.3143 771.639 Z" fill="#000000" fill-rule="nonzero" fill-opacity="1"></path><path clip-path="url(#clip640)" d="M372.881 12.096 L383.9 12.096 L410.717 62.6918 L410.717 12.096 L418.657 12.096 L418.657 72.576 L407.638 72.576 L380.821 21.9802 L380.821 72.576 L372.881 72.576 L372.881 12.096 Z" fill="#000000" fill-rule="nonzero" fill-opacity="1"></path><path clip-path="url(#clip640)" d="M473.425 48.0275 L473.425 51.6733 L439.154 51.6733 Q439.64 59.3701 443.772 63.421 Q447.945 67.4314 455.358 67.4314 Q459.652 67.4314 463.662 66.3781 Q467.713 65.3249 471.683 63.2184 L471.683 70.267 Q467.673 71.9684 463.46 72.8596 Q459.247 73.7508 454.912 73.7508 Q444.056 73.7508 437.696 67.4314 Q431.376 61.1119 431.376 50.3365 Q431.376 39.1965 437.372 32.6746 Q443.408 26.1121 453.616 26.1121 Q462.771 26.1121 468.078 32.0264 Q473.425 37.9003 473.425 48.0275 M465.971 45.84 Q465.89 39.7232 462.528 36.0774 Q459.206 32.4315 453.697 32.4315 Q447.459 32.4315 443.691 35.9558 Q439.964 39.4801 439.397 45.8805 L465.971 45.84 Z" fill="#000000" fill-rule="nonzero" fill-opacity="1"></path><path clip-path="url(#clip640)" d="M493.031 14.324 L493.031 27.2059 L508.384 27.2059 L508.384 32.9987 L493.031 32.9987 L493.031 57.6282 Q493.031 63.1779 494.53 64.7578 Q496.069 66.3376 500.728 66.3376 L508.384 66.3376 L508.384 72.576 L500.728 72.576 Q492.099 72.576 488.818 69.3758 Q485.537 66.1351 485.537 57.6282 L485.537 32.9987 L480.068 32.9987 L480.068 27.2059 L485.537 27.2059 L485.537 14.324 L493.031 14.324 Z" fill="#000000" fill-rule="nonzero" fill-opacity="1"></path><path clip-path="url(#clip640)" d="M550.757 49.9314 Q550.757 41.7081 547.354 37.0496 Q543.992 32.3505 538.077 32.3505 Q532.163 32.3505 528.76 37.0496 Q525.398 41.7081 525.398 49.9314 Q525.398 58.1548 528.76 62.8538 Q532.163 67.5124 538.077 67.5124 Q543.992 67.5124 547.354 62.8538 Q550.757 58.1548 550.757 49.9314 M525.398 34.0924 Q527.747 30.0415 531.312 28.0971 Q534.918 26.1121 539.9 26.1121 Q548.164 26.1121 553.309 32.6746 Q558.494 39.2371 558.494 49.9314 Q558.494 60.6258 553.309 67.1883 Q548.164 73.7508 539.9 73.7508 Q534.918 73.7508 531.312 71.8063 Q527.747 69.8214 525.398 65.7705 L525.398 72.576 L517.904 72.576 L517.904 9.54393 L525.398 9.54393 L525.398 34.0924 Z" fill="#000000" fill-rule="nonzero" fill-opacity="1"></path><path clip-path="url(#clip640)" d="M591.468 49.7694 Q582.435 49.7694 578.951 51.8354 Q575.467 53.9013 575.467 58.8839 Q575.467 62.8538 578.06 65.2034 Q580.693 67.5124 585.189 67.5124 Q591.387 67.5124 595.114 63.1374 Q598.881 58.7219 598.881 51.4303 L598.881 49.7694 L591.468 49.7694 M606.335 46.6907 L606.335 72.576 L598.881 72.576 L598.881 65.6895 Q596.329 69.8214 592.521 71.8063 Q588.714 73.7508 583.204 73.7508 Q576.237 73.7508 572.105 69.8619 Q568.013 65.9325 568.013 59.3701 Q568.013 51.7138 573.118 47.825 Q578.262 43.9361 588.43 43.9361 L598.881 43.9361 L598.881 43.2069 Q598.881 38.0623 595.479 35.2672 Q592.116 32.4315 585.999 32.4315 Q582.111 32.4315 578.424 33.3632 Q574.738 34.295 571.335 36.1584 L571.335 29.2718 Q575.427 27.692 579.275 26.9223 Q583.123 26.1121 586.769 26.1121 Q596.613 26.1121 601.474 31.2163 Q606.335 36.3204 606.335 46.6907 Z" fill="#000000" fill-rule="nonzero" fill-opacity="1"></path><path clip-path="url(#clip640)" d="M621.688 9.54393 L629.142 9.54393 L629.142 72.576 L621.688 72.576 L621.688 9.54393 Z" fill="#000000" fill-rule="nonzero" fill-opacity="1"></path><path clip-path="url(#clip640)" d="M644.738 9.54393 L652.191 9.54393 L652.191 72.576 L644.738 72.576 L644.738 9.54393 Z" fill="#000000" fill-rule="nonzero" fill-opacity="1"></path><path clip-path="url(#clip640)" d="M701.531 14.324 L701.531 27.2059 L716.884 27.2059 L716.884 32.9987 L701.531 32.9987 L701.531 57.6282 Q701.531 63.1779 703.03 64.7578 Q704.569 66.3376 709.228 66.3376 L716.884 66.3376 L716.884 72.576 L709.228 72.576 Q700.6 72.576 697.318 69.3758 Q694.037 66.1351 694.037 57.6282 L694.037 32.9987 L688.568 32.9987 L688.568 27.2059 L694.037 27.2059 L694.037 14.324 L701.531 14.324 Z" fill="#000000" fill-rule="nonzero" fill-opacity="1"></path><path clip-path="url(#clip640)" d="M752.978 34.1734 Q751.722 33.4443 750.223 33.1202 Q748.765 32.7556 746.982 32.7556 Q740.663 32.7556 737.26 36.8875 Q733.898 40.9789 733.898 48.6757 L733.898 72.576 L726.404 72.576 L726.404 27.2059 L733.898 27.2059 L733.898 34.2544 Q736.247 30.1225 740.015 28.1376 Q743.782 26.1121 749.17 26.1121 Q749.94 26.1121 750.871 26.2337 Q751.803 26.3147 752.937 26.5172 L752.978 34.1734 Z" fill="#000000" fill-rule="nonzero" fill-opacity="1"></path><path clip-path="url(#clip640)" d="M781.415 49.7694 Q772.382 49.7694 768.898 51.8354 Q765.414 53.9013 765.414 58.8839 Q765.414 62.8538 768.007 65.2034 Q770.64 67.5124 775.136 67.5124 Q781.334 67.5124 785.061 63.1374 Q788.828 58.7219 788.828 51.4303 L788.828 49.7694 L781.415 49.7694 M796.282 46.6907 L796.282 72.576 L788.828 72.576 L788.828 65.6895 Q786.276 69.8214 782.468 71.8063 Q778.66 73.7508 773.151 73.7508 Q766.184 73.7508 762.052 69.8619 Q757.96 65.9325 757.96 59.3701 Q757.96 51.7138 763.064 47.825 Q768.209 43.9361 778.377 43.9361 L788.828 43.9361 L788.828 43.2069 Q788.828 38.0623 785.425 35.2672 Q782.063 32.4315 775.946 32.4315 Q772.057 32.4315 768.371 33.3632 Q764.685 34.295 761.282 36.1584 L761.282 29.2718 Q765.373 27.692 769.222 26.9223 Q773.07 26.1121 776.716 26.1121 Q786.56 26.1121 791.421 31.2163 Q796.282 36.3204 796.282 46.6907 Z" fill="#000000" fill-rule="nonzero" fill-opacity="1"></path><path clip-path="url(#clip640)" d="M811.635 27.2059 L819.088 27.2059 L819.088 73.3862 Q819.088 82.0551 815.767 85.944 Q812.485 89.8329 805.153 89.8329 L802.318 89.8329 L802.318 83.5134 L804.303 83.5134 Q808.556 83.5134 810.095 81.5285 Q811.635 79.5841 811.635 73.3862 L811.635 27.2059 M811.635 9.54393 L819.088 9.54393 L819.088 18.9825 L811.635 18.9825 L811.635 9.54393 Z" fill="#000000" fill-rule="nonzero" fill-opacity="1"></path><path clip-path="url(#clip640)" d="M873.492 48.0275 L873.492 51.6733 L839.221 51.6733 Q839.708 59.3701 843.839 63.421 Q848.012 67.4314 855.425 67.4314 Q859.719 67.4314 863.729 66.3781 Q867.78 65.3249 871.75 63.2184 L871.75 70.267 Q867.74 71.9684 863.527 72.8596 Q859.314 73.7508 854.979 73.7508 Q844.123 73.7508 837.763 67.4314 Q831.444 61.1119 831.444 50.3365 Q831.444 39.1965 837.439 32.6746 Q843.475 26.1121 853.683 26.1121 Q862.838 26.1121 868.145 32.0264 Q873.492 37.9003 873.492 48.0275 M866.038 45.84 Q865.957 39.7232 862.595 36.0774 Q859.273 32.4315 853.764 32.4315 Q847.526 32.4315 843.758 35.9558 Q840.032 39.4801 839.465 45.8805 L866.038 45.84 Z" fill="#000000" fill-rule="nonzero" fill-opacity="1"></path><path clip-path="url(#clip640)" d="M918.376 28.9478 L918.376 35.9153 Q915.216 34.1734 912.016 33.3227 Q908.857 32.4315 905.616 32.4315 Q898.365 32.4315 894.354 37.0496 Q890.344 41.6271 890.344 49.9314 Q890.344 58.2358 894.354 62.8538 Q898.365 67.4314 905.616 67.4314 Q908.857 67.4314 912.016 66.5807 Q915.216 65.6895 918.376 63.9476 L918.376 70.8341 Q915.257 72.2924 911.895 73.0216 Q908.573 73.7508 904.806 73.7508 Q894.557 73.7508 888.521 67.3098 Q882.485 60.8689 882.485 49.9314 Q882.485 38.832 888.561 32.472 Q894.678 26.1121 905.292 26.1121 Q908.735 26.1121 912.016 26.8413 Q915.297 27.5299 918.376 28.9478 Z" fill="#000000" fill-rule="nonzero" fill-opacity="1"></path><path clip-path="url(#clip640)" d="M938.712 14.324 L938.712 27.2059 L954.065 27.2059 L954.065 32.9987 L938.712 32.9987 L938.712 57.6282 Q938.712 63.1779 940.211 64.7578 Q941.75 66.3376 946.408 66.3376 L954.065 66.3376 L954.065 72.576 L946.408 72.576 Q937.78 72.576 934.499 69.3758 Q931.218 66.1351 931.218 57.6282 L931.218 32.9987 L925.749 32.9987 L925.749 27.2059 L931.218 27.2059 L931.218 14.324 L938.712 14.324 Z" fill="#000000" fill-rule="nonzero" fill-opacity="1"></path><path clip-path="url(#clip640)" d="M981.449 32.4315 Q975.453 32.4315 971.97 37.1306 Q968.486 41.7891 968.486 49.9314 Q968.486 58.0738 971.929 62.7728 Q975.413 67.4314 981.449 67.4314 Q987.404 67.4314 990.887 62.7323 Q994.371 58.0333 994.371 49.9314 Q994.371 41.8701 990.887 37.1711 Q987.404 32.4315 981.449 32.4315 M981.449 26.1121 Q991.171 26.1121 996.721 32.4315 Q1002.27 38.7509 1002.27 49.9314 Q1002.27 61.0714 996.721 67.4314 Q991.171 73.7508 981.449 73.7508 Q971.686 73.7508 966.136 67.4314 Q960.627 61.0714 960.627 49.9314 Q960.627 38.7509 966.136 32.4315 Q971.686 26.1121 981.449 26.1121 Z" fill="#000000" fill-rule="nonzero" fill-opacity="1"></path><path clip-path="url(#clip640)" d="M1040.92 34.1734 Q1039.66 33.4443 1038.16 33.1202 Q1036.7 32.7556 1034.92 32.7556 Q1028.6 32.7556 1025.2 36.8875 Q1021.84 40.9789 1021.84 48.6757 L1021.84 72.576 L1014.34 72.576 L1014.34 27.2059 L1021.84 27.2059 L1021.84 34.2544 Q1024.19 30.1225 1027.95 28.1376 Q1031.72 26.1121 1037.11 26.1121 Q1037.88 26.1121 1038.81 26.2337 Q1039.74 26.3147 1040.88 26.5172 L1040.92 34.1734 Z" fill="#000000" fill-rule="nonzero" fill-opacity="1"></path><path clip-path="url(#clip640)" d="M1067.61 76.7889 Q1064.45 84.8907 1061.45 87.3618 Q1058.46 89.8329 1053.43 89.8329 L1047.48 89.8329 L1047.48 83.5945 L1051.85 83.5945 Q1054.93 83.5945 1056.63 82.1361 Q1058.33 80.6778 1060.4 75.2496 L1061.74 71.8468 L1043.39 27.2059 L1051.29 27.2059 L1065.46 62.6918 L1079.64 27.2059 L1087.54 27.2059 L1067.61 76.7889 Z" fill="#000000" fill-rule="nonzero" fill-opacity="1"></path><path clip-path="url(#clip640)" d="M1142.11 9.62495 Q1136.68 18.942 1134.05 28.0566 Q1131.41 37.1711 1131.41 46.5287 Q1131.41 55.8863 1134.05 65.0818 Q1136.72 74.2369 1142.11 83.5134 L1135.63 83.5134 Q1129.55 73.9938 1126.51 64.7983 Q1123.51 55.6027 1123.51 46.5287 Q1123.51 37.4952 1126.51 28.3401 Q1129.51 19.1851 1135.63 9.62495 L1142.11 9.62495 Z" fill="#000000" fill-rule="nonzero" fill-opacity="1"></path><path clip-path="url(#clip640)" d="M1156.89 12.096 L1165.08 12.096 L1165.08 72.576 L1156.89 72.576 L1156.89 12.096 Z" fill="#000000" fill-rule="nonzero" fill-opacity="1"></path><path clip-path="url(#clip640)" d="M1216.36 35.9153 Q1219.16 30.8922 1223.04 28.5022 Q1226.93 26.1121 1232.2 26.1121 Q1239.29 26.1121 1243.14 31.0947 Q1246.99 36.0368 1246.99 45.1919 L1246.99 72.576 L1239.49 72.576 L1239.49 45.4349 Q1239.49 38.913 1237.18 35.7533 Q1234.87 32.5936 1230.13 32.5936 Q1224.34 32.5936 1220.98 36.4419 Q1217.62 40.2903 1217.62 46.9338 L1217.62 72.576 L1210.12 72.576 L1210.12 45.4349 Q1210.12 38.8725 1207.81 35.7533 Q1205.5 32.5936 1200.68 32.5936 Q1194.97 32.5936 1191.61 36.4824 Q1188.25 40.3308 1188.25 46.9338 L1188.25 72.576 L1180.75 72.576 L1180.75 27.2059 L1188.25 27.2059 L1188.25 34.2544 Q1190.8 30.082 1194.36 28.0971 Q1197.93 26.1121 1202.83 26.1121 Q1207.77 26.1121 1211.22 28.6237 Q1214.7 31.1352 1216.36 35.9153 Z" fill="#000000" fill-rule="nonzero" fill-opacity="1"></path><path clip-path="url(#clip640)" d="M1269.06 65.7705 L1269.06 89.8329 L1261.57 89.8329 L1261.57 27.2059 L1269.06 27.2059 L1269.06 34.0924 Q1271.41 30.0415 1274.98 28.0971 Q1278.58 26.1121 1283.57 26.1121 Q1291.83 26.1121 1296.97 32.6746 Q1302.16 39.2371 1302.16 49.9314 Q1302.16 60.6258 1296.97 67.1883 Q1291.83 73.7508 1283.57 73.7508 Q1278.58 73.7508 1274.98 71.8063 Q1271.41 69.8214 1269.06 65.7705 M1294.42 49.9314 Q1294.42 41.7081 1291.02 37.0496 Q1287.66 32.3505 1281.74 32.3505 Q1275.83 32.3505 1272.43 37.0496 Q1269.06 41.7081 1269.06 49.9314 Q1269.06 58.1548 1272.43 62.8538 Q1275.83 67.5124 1281.74 67.5124 Q1287.66 67.5124 1291.02 62.8538 Q1294.42 58.1548 1294.42 49.9314 Z" fill="#000000" fill-rule="nonzero" fill-opacity="1"></path><path clip-path="url(#clip640)" d="M1314.51 9.54393 L1321.97 9.54393 L1321.97 72.576 L1314.51 72.576 L1314.51 9.54393 Z" fill="#000000" fill-rule="nonzero" fill-opacity="1"></path><path clip-path="url(#clip640)" d="M1376.37 48.0275 L1376.37 51.6733 L1342.1 51.6733 Q1342.59 59.3701 1346.72 63.421 Q1350.89 67.4314 1358.3 67.4314 Q1362.6 67.4314 1366.61 66.3781 Q1370.66 65.3249 1374.63 63.2184 L1374.63 70.267 Q1370.62 71.9684 1366.41 72.8596 Q1362.19 73.7508 1357.86 73.7508 Q1347 73.7508 1340.64 67.4314 Q1334.32 61.1119 1334.32 50.3365 Q1334.32 39.1965 1340.32 32.6746 Q1346.35 26.1121 1356.56 26.1121 Q1365.72 26.1121 1371.02 32.0264 Q1376.37 37.9003 1376.37 48.0275 M1368.92 45.84 Q1368.84 39.7232 1365.47 36.0774 Q1362.15 32.4315 1356.64 32.4315 Q1350.41 32.4315 1346.64 35.9558 Q1342.91 39.4801 1342.34 45.8805 L1368.92 45.84 Z" fill="#000000" fill-rule="nonzero" fill-opacity="1"></path><path clip-path="url(#clip640)" d="M1423.93 35.9153 Q1426.72 30.8922 1430.61 28.5022 Q1434.5 26.1121 1439.77 26.1121 Q1446.86 26.1121 1450.71 31.0947 Q1454.55 36.0368 1454.55 45.1919 L1454.55 72.576 L1447.06 72.576 L1447.06 45.4349 Q1447.06 38.913 1444.75 35.7533 Q1442.44 32.5936 1437.7 32.5936 Q1431.91 32.5936 1428.55 36.4419 Q1425.18 40.2903 1425.18 46.9338 L1425.18 72.576 L1417.69 72.576 L1417.69 45.4349 Q1417.69 38.8725 1415.38 35.7533 Q1413.07 32.5936 1408.25 32.5936 Q1402.54 32.5936 1399.18 36.4824 Q1395.82 40.3308 1395.82 46.9338 L1395.82 72.576 L1388.32 72.576 L1388.32 27.2059 L1395.82 27.2059 L1395.82 34.2544 Q1398.37 30.082 1401.93 28.0971 Q1405.5 26.1121 1410.4 26.1121 Q1415.34 26.1121 1418.78 28.6237 Q1422.27 31.1352 1423.93 35.9153 Z" fill="#000000" fill-rule="nonzero" fill-opacity="1"></path><path clip-path="url(#clip640)" d="M1508.23 48.0275 L1508.23 51.6733 L1473.96 51.6733 Q1474.44 59.3701 1478.58 63.421 Q1482.75 67.4314 1490.16 67.4314 Q1494.46 67.4314 1498.47 66.3781 Q1502.52 65.3249 1506.49 63.2184 L1506.49 70.267 Q1502.48 71.9684 1498.26 72.8596 Q1494.05 73.7508 1489.72 73.7508 Q1478.86 73.7508 1472.5 67.4314 Q1466.18 61.1119 1466.18 50.3365 Q1466.18 39.1965 1472.18 32.6746 Q1478.21 26.1121 1488.42 26.1121 Q1497.57 26.1121 1502.88 32.0264 Q1508.23 37.9003 1508.23 48.0275 M1500.77 45.84 Q1500.69 39.7232 1497.33 36.0774 Q1494.01 32.4315 1488.5 32.4315 Q1482.26 32.4315 1478.49 35.9558 Q1474.77 39.4801 1474.2 45.8805 L1500.77 45.84 Z" fill="#000000" fill-rule="nonzero" fill-opacity="1"></path><path clip-path="url(#clip640)" d="M1558.18 45.1919 L1558.18 72.576 L1550.72 72.576 L1550.72 45.4349 Q1550.72 38.994 1548.21 35.7938 Q1545.7 32.5936 1540.68 32.5936 Q1534.64 32.5936 1531.16 36.4419 Q1527.67 40.2903 1527.67 46.9338 L1527.67 72.576 L1520.18 72.576 L1520.18 27.2059 L1527.67 27.2059 L1527.67 34.2544 Q1530.35 30.163 1533.95 28.1376 Q1537.6 26.1121 1542.34 26.1121 Q1550.16 26.1121 1554.17 30.9732 Q1558.18 35.7938 1558.18 45.1919 Z" fill="#000000" fill-rule="nonzero" fill-opacity="1"></path><path clip-path="url(#clip640)" d="M1580.42 14.324 L1580.42 27.2059 L1595.77 27.2059 L1595.77 32.9987 L1580.42 32.9987 L1580.42 57.6282 Q1580.42 63.1779 1581.91 64.7578 Q1583.45 66.3376 1588.11 66.3376 L1595.77 66.3376 L1595.77 72.576 L1588.11 72.576 Q1579.48 72.576 1576.2 69.3758 Q1572.92 66.1351 1572.92 57.6282 L1572.92 32.9987 L1567.45 32.9987 L1567.45 27.2059 L1572.92 27.2059 L1572.92 14.324 L1580.42 14.324 Z" fill="#000000" fill-rule="nonzero" fill-opacity="1"></path><path clip-path="url(#clip640)" d="M1605.57 27.2059 L1613.03 27.2059 L1613.03 72.576 L1605.57 72.576 L1605.57 27.2059 M1605.57 9.54393 L1613.03 9.54393 L1613.03 18.9825 L1605.57 18.9825 L1605.57 9.54393 Z" fill="#000000" fill-rule="nonzero" fill-opacity="1"></path><path clip-path="url(#clip640)" d="M1666.34 45.1919 L1666.34 72.576 L1658.88 72.576 L1658.88 45.4349 Q1658.88 38.994 1656.37 35.7938 Q1653.86 32.5936 1648.84 32.5936 Q1642.8 32.5936 1639.32 36.4419 Q1635.83 40.2903 1635.83 46.9338 L1635.83 72.576 L1628.34 72.576 L1628.34 27.2059 L1635.83 27.2059 L1635.83 34.2544 Q1638.51 30.163 1642.11 28.1376 Q1645.76 26.1121 1650.5 26.1121 Q1658.31 26.1121 1662.32 30.9732 Q1666.34 35.7938 1666.34 45.1919 Z" fill="#000000" fill-rule="nonzero" fill-opacity="1"></path><path clip-path="url(#clip640)" d="M1711.06 49.3643 Q1711.06 41.2625 1707.69 36.8065 Q1704.37 32.3505 1698.34 32.3505 Q1692.34 32.3505 1688.98 36.8065 Q1685.66 41.2625 1685.66 49.3643 Q1685.66 57.4256 1688.98 61.8816 Q1692.34 66.3376 1698.34 66.3376 Q1704.37 66.3376 1707.69 61.8816 Q1711.06 57.4256 1711.06 49.3643 M1718.51 66.9452 Q1718.51 78.5308 1713.37 84.1616 Q1708.22 89.8329 1697.61 89.8329 Q1693.68 89.8329 1690.19 89.2252 Q1686.71 88.6581 1683.43 87.4428 L1683.43 80.1917 Q1686.71 81.9741 1689.91 82.8248 Q1693.11 83.6755 1696.43 83.6755 Q1703.77 83.6755 1707.41 79.8271 Q1711.06 76.0193 1711.06 68.282 L1711.06 64.5957 Q1708.75 68.6061 1705.14 70.5911 Q1701.54 72.576 1696.51 72.576 Q1688.17 72.576 1683.07 66.2161 Q1677.96 59.8562 1677.96 49.3643 Q1677.96 38.832 1683.07 32.472 Q1688.17 26.1121 1696.51 26.1121 Q1701.54 26.1121 1705.14 28.0971 Q1708.75 30.082 1711.06 34.0924 L1711.06 27.2059 L1718.51 27.2059 L1718.51 66.9452 Z" fill="#000000" fill-rule="nonzero" fill-opacity="1"></path><path clip-path="url(#clip640)" d="M1755.9 27.2059 L1763.35 27.2059 L1772.67 62.6108 L1781.95 27.2059 L1790.74 27.2059 L1800.06 62.6108 L1809.33 27.2059 L1816.79 27.2059 L1804.92 72.576 L1796.13 72.576 L1786.36 35.3887 L1776.56 72.576 L1767.77 72.576 L1755.9 27.2059 Z" fill="#000000" fill-rule="nonzero" fill-opacity="1"></path><path clip-path="url(#clip640)" d="M1828.09 27.2059 L1835.54 27.2059 L1835.54 72.576 L1828.09 72.576 L1828.09 27.2059 M1828.09 9.54393 L1835.54 9.54393 L1835.54 18.9825 L1828.09 18.9825 L1828.09 9.54393 Z" fill="#000000" fill-rule="nonzero" fill-opacity="1"></path><path clip-path="url(#clip640)" d="M1858.51 14.324 L1858.51 27.2059 L1873.86 27.2059 L1873.86 32.9987 L1858.51 32.9987 L1858.51 57.6282 Q1858.51 63.1779 1860.01 64.7578 Q1861.55 66.3376 1866.21 66.3376 L1873.86 66.3376 L1873.86 72.576 L1866.21 72.576 Q1857.58 72.576 1854.3 69.3758 Q1851.02 66.1351 1851.02 57.6282 L1851.02 32.9987 L1845.55 32.9987 L1845.55 27.2059 L1851.02 27.2059 L1851.02 14.324 L1858.51 14.324 Z" fill="#000000" fill-rule="nonzero" fill-opacity="1"></path><path clip-path="url(#clip640)" d="M1921.38 45.1919 L1921.38 72.576 L1913.93 72.576 L1913.93 45.4349 Q1913.93 38.994 1911.41 35.7938 Q1908.9 32.5936 1903.88 32.5936 Q1897.84 32.5936 1894.36 36.4419 Q1890.88 40.2903 1890.88 46.9338 L1890.88 72.576 L1883.38 72.576 L1883.38 9.54393 L1890.88 9.54393 L1890.88 34.2544 Q1893.55 30.163 1897.16 28.1376 Q1900.8 26.1121 1905.54 26.1121 Q1913.36 26.1121 1917.37 30.9732 Q1921.38 35.7938 1921.38 45.1919 Z" fill="#000000" fill-rule="nonzero" fill-opacity="1"></path><path clip-path="url(#clip640)" d="M1962.94 12.096 L1971.13 12.096 L1971.13 68.3631 Q1971.13 79.3005 1966.95 84.2426 Q1962.82 89.1847 1953.63 89.1847 L1950.51 89.1847 L1950.51 82.2982 L1953.06 82.2982 Q1958.49 82.2982 1960.71 79.26 Q1962.94 76.2218 1962.94 68.3631 L1962.94 12.096 Z" fill="#000000" fill-rule="nonzero" fill-opacity="1"></path><path clip-path="url(#clip640)" d="M1986.32 54.671 L1986.32 27.2059 L1993.77 27.2059 L1993.77 54.3874 Q1993.77 60.8284 1996.28 64.0691 Q1998.79 67.2693 2003.82 67.2693 Q2009.85 67.2693 2013.34 63.421 Q2016.86 59.5726 2016.86 52.9291 L2016.86 27.2059 L2024.31 27.2059 L2024.31 72.576 L2016.86 72.576 L2016.86 65.6084 Q2014.15 69.7404 2010.54 71.7658 Q2006.98 73.7508 2002.24 73.7508 Q1994.42 73.7508 1990.37 68.8897 Q1986.32 64.0286 1986.32 54.671 M2005.07 26.1121 L2005.07 26.1121 Z" fill="#000000" fill-rule="nonzero" fill-opacity="1"></path><path clip-path="url(#clip640)" d="M2039.67 9.54393 L2047.12 9.54393 L2047.12 72.576 L2039.67 72.576 L2039.67 9.54393 Z" fill="#000000" fill-rule="nonzero" fill-opacity="1"></path><path clip-path="url(#clip640)" d="M2062.72 27.2059 L2070.17 27.2059 L2070.17 72.576 L2062.72 72.576 L2062.72 27.2059 M2062.72 9.54393 L2070.17 9.54393 L2070.17 18.9825 L2062.72 18.9825 L2062.72 9.54393 Z" fill="#000000" fill-rule="nonzero" fill-opacity="1"></path><path clip-path="url(#clip640)" d="M2106.38 49.7694 Q2097.35 49.7694 2093.87 51.8354 Q2090.38 53.9013 2090.38 58.8839 Q2090.38 62.8538 2092.98 65.2034 Q2095.61 67.5124 2100.11 67.5124 Q2106.3 67.5124 2110.03 63.1374 Q2113.8 58.7219 2113.8 51.4303 L2113.8 49.7694 L2106.38 49.7694 M2121.25 46.6907 L2121.25 72.576 L2113.8 72.576 L2113.8 65.6895 Q2111.25 69.8214 2107.44 71.8063 Q2103.63 73.7508 2098.12 73.7508 Q2091.15 73.7508 2087.02 69.8619 Q2082.93 65.9325 2082.93 59.3701 Q2082.93 51.7138 2088.03 47.825 Q2093.18 43.9361 2103.35 43.9361 L2113.8 43.9361 L2113.8 43.2069 Q2113.8 38.0623 2110.4 35.2672 Q2107.03 32.4315 2100.92 32.4315 Q2097.03 32.4315 2093.34 33.3632 Q2089.65 34.295 2086.25 36.1584 L2086.25 29.2718 Q2090.34 27.692 2094.19 26.9223 Q2098.04 26.1121 2101.69 26.1121 Q2111.53 26.1121 2116.39 31.2163 Q2121.25 36.3204 2121.25 46.6907 Z" fill="#000000" fill-rule="nonzero" fill-opacity="1"></path><path clip-path="url(#clip640)" d="M2135.43 9.62495 L2141.91 9.62495 Q2147.99 19.1851 2150.99 28.3401 Q2154.02 37.4952 2154.02 46.5287 Q2154.02 55.6027 2150.99 64.7983 Q2147.99 73.9938 2141.91 83.5134 L2135.43 83.5134 Q2140.82 74.2369 2143.45 65.0818 Q2146.12 55.8863 2146.12 46.5287 Q2146.12 37.1711 2143.45 28.0566 Q2140.82 18.942 2135.43 9.62495 Z" fill="#000000" fill-rule="nonzero" fill-opacity="1"></path><polyline clip-path="url(#clip642)" style="stroke:#009af9; stroke-linecap:round; stroke-linejoin:round; stroke-width:4; stroke-opacity:1; fill:none" points="235.808,1386.4 447.707,1092.11 657.806,838.507 866.126,625.516 1072.61,453.282 1277.31,321.681 1480.38,230.207 1682.34,177.327 1883.99,160.256 2085.42,178.245 2285.62,234.16 "></polyline>
<polyline clip-path="url(#clip642)" style="stroke:#e26f46; stroke-linecap:round; stroke-linejoin:round; stroke-width:4; stroke-opacity:1; fill:none" points="235.808,1386.4 450.965,1095 661.278,842.265 862.72,625.134 1070.02,450.889 1278.61,322.367 1480.59,227.855 1681.79,178.503 1882.28,165.731 2080.56,169.352 2291.1,238.175 "></polyline>
<path clip-path="url(#clip640)" d="M246.769 322.316 L926.85 322.316 L926.85 166.796 L246.769 166.796  Z" fill="#ffffff" fill-rule="evenodd" fill-opacity="1"></path>
<polyline clip-path="url(#clip640)" style="stroke:#000000; stroke-linecap:round; stroke-linejoin:round; stroke-width:4; stroke-opacity:1; fill:none" points="246.769,322.316 926.85,322.316 926.85,166.796 246.769,166.796 246.769,322.316 "></polyline>
<polyline clip-path="url(#clip640)" style="stroke:#009af9; stroke-linecap:round; stroke-linejoin:round; stroke-width:4; stroke-opacity:1; fill:none" points="270.976,218.636 416.216,218.636 "></polyline>
<path clip-path="url(#clip640)" d="M445.099 205.198 L445.099 218.184 L450.979 218.184 Q454.242 218.184 456.025 216.495 Q457.807 214.805 457.807 211.68 Q457.807 208.578 456.025 206.888 Q454.242 205.198 450.979 205.198 L445.099 205.198 M440.423 201.356 L450.979 201.356 Q456.789 201.356 459.752 203.995 Q462.738 206.61 462.738 211.68 Q462.738 216.795 459.752 219.411 Q456.789 222.027 450.979 222.027 L445.099 222.027 L445.099 235.916 L440.423 235.916 L440.423 201.356 Z" fill="#000000" fill-rule="nonzero" fill-opacity="1"></path><path clip-path="url(#clip640)" d="M483.015 213.971 Q482.298 213.555 481.441 213.37 Q480.608 213.161 479.59 213.161 Q475.978 213.161 474.034 215.522 Q472.113 217.86 472.113 222.258 L472.113 235.916 L467.83 235.916 L467.83 209.99 L472.113 209.99 L472.113 214.018 Q473.455 211.657 475.608 210.522 Q477.761 209.365 480.84 209.365 Q481.279 209.365 481.812 209.434 Q482.344 209.481 482.992 209.596 L483.015 213.971 Z" fill="#000000" fill-rule="nonzero" fill-opacity="1"></path><path clip-path="url(#clip640)" d="M508.617 221.888 L508.617 223.971 L489.034 223.971 Q489.312 228.369 491.673 230.684 Q494.057 232.976 498.293 232.976 Q500.747 232.976 503.039 232.374 Q505.353 231.772 507.622 230.569 L507.622 234.596 Q505.33 235.568 502.923 236.078 Q500.515 236.587 498.039 236.587 Q491.835 236.587 488.201 232.976 Q484.59 229.365 484.59 223.207 Q484.59 216.842 488.015 213.115 Q491.464 209.365 497.298 209.365 Q502.529 209.365 505.562 212.745 Q508.617 216.101 508.617 221.888 M504.358 220.638 Q504.312 217.143 502.39 215.059 Q500.492 212.976 497.344 212.976 Q493.779 212.976 491.627 214.99 Q489.497 217.004 489.173 220.661 L504.358 220.638 Z" fill="#000000" fill-rule="nonzero" fill-opacity="1"></path><path clip-path="url(#clip640)" d="M532.668 213.925 L532.668 199.897 L536.927 199.897 L536.927 235.916 L532.668 235.916 L532.668 232.027 Q531.325 234.342 529.265 235.476 Q527.228 236.587 524.358 236.587 Q519.659 236.587 516.696 232.837 Q513.756 229.087 513.756 222.976 Q513.756 216.865 516.696 213.115 Q519.659 209.365 524.358 209.365 Q527.228 209.365 529.265 210.499 Q531.325 211.61 532.668 213.925 M518.154 222.976 Q518.154 227.675 520.075 230.36 Q522.02 233.022 525.4 233.022 Q528.779 233.022 530.724 230.36 Q532.668 227.675 532.668 222.976 Q532.668 218.277 530.724 215.615 Q528.779 212.93 525.4 212.93 Q522.02 212.93 520.075 215.615 Q518.154 218.277 518.154 222.976 Z" fill="#000000" fill-rule="nonzero" fill-opacity="1"></path><path clip-path="url(#clip640)" d="M545.7 209.99 L549.96 209.99 L549.96 235.916 L545.7 235.916 L545.7 209.99 M545.7 199.897 L549.96 199.897 L549.96 205.291 L545.7 205.291 L545.7 199.897 Z" fill="#000000" fill-rule="nonzero" fill-opacity="1"></path><path clip-path="url(#clip640)" d="M577.529 210.985 L577.529 214.967 Q575.723 213.971 573.895 213.485 Q572.089 212.976 570.237 212.976 Q566.094 212.976 563.802 215.615 Q561.51 218.231 561.51 222.976 Q561.51 227.721 563.802 230.36 Q566.094 232.976 570.237 232.976 Q572.089 232.976 573.895 232.49 Q575.723 231.981 577.529 230.985 L577.529 234.92 Q575.746 235.754 573.825 236.17 Q571.927 236.587 569.774 236.587 Q563.918 236.587 560.469 232.906 Q557.02 229.226 557.02 222.976 Q557.02 216.633 560.492 212.999 Q563.987 209.365 570.052 209.365 Q572.02 209.365 573.895 209.782 Q575.77 210.175 577.529 210.985 Z" fill="#000000" fill-rule="nonzero" fill-opacity="1"></path><path clip-path="url(#clip640)" d="M589.149 202.629 L589.149 209.99 L597.922 209.99 L597.922 213.3 L589.149 213.3 L589.149 227.374 Q589.149 230.545 590.006 231.448 Q590.885 232.351 593.547 232.351 L597.922 232.351 L597.922 235.916 L593.547 235.916 Q588.617 235.916 586.742 234.087 Q584.867 232.235 584.867 227.374 L584.867 213.3 L581.742 213.3 L581.742 209.99 L584.867 209.99 L584.867 202.629 L589.149 202.629 Z" fill="#000000" fill-rule="nonzero" fill-opacity="1"></path><path clip-path="url(#clip640)" d="M625.7 221.888 L625.7 223.971 L606.117 223.971 Q606.394 228.369 608.756 230.684 Q611.14 232.976 615.376 232.976 Q617.83 232.976 620.121 232.374 Q622.436 231.772 624.705 230.569 L624.705 234.596 Q622.413 235.568 620.005 236.078 Q617.598 236.587 615.121 236.587 Q608.918 236.587 605.283 232.976 Q601.672 229.365 601.672 223.207 Q601.672 216.842 605.098 213.115 Q608.547 209.365 614.381 209.365 Q619.612 209.365 622.644 212.745 Q625.7 216.101 625.7 221.888 M621.441 220.638 Q621.394 217.143 619.473 215.059 Q617.575 212.976 614.427 212.976 Q610.862 212.976 608.709 214.99 Q606.58 217.004 606.256 220.661 L621.441 220.638 Z" fill="#000000" fill-rule="nonzero" fill-opacity="1"></path><path clip-path="url(#clip640)" d="M649.751 213.925 L649.751 199.897 L654.01 199.897 L654.01 235.916 L649.751 235.916 L649.751 232.027 Q648.408 234.342 646.348 235.476 Q644.311 236.587 641.441 236.587 Q636.741 236.587 633.779 232.837 Q630.839 229.087 630.839 222.976 Q630.839 216.865 633.779 213.115 Q636.741 209.365 641.441 209.365 Q644.311 209.365 646.348 210.499 Q648.408 211.61 649.751 213.925 M635.237 222.976 Q635.237 227.675 637.158 230.36 Q639.103 233.022 642.482 233.022 Q645.862 233.022 647.806 230.36 Q649.751 227.675 649.751 222.976 Q649.751 218.277 647.806 215.615 Q645.862 212.93 642.482 212.93 Q639.103 212.93 637.158 215.615 Q635.237 218.277 635.237 222.976 Z" fill="#000000" fill-rule="nonzero" fill-opacity="1"></path><path clip-path="url(#clip640)" d="M682.065 202.629 L682.065 209.99 L690.838 209.99 L690.838 213.3 L682.065 213.3 L682.065 227.374 Q682.065 230.545 682.922 231.448 Q683.801 232.351 686.463 232.351 L690.838 232.351 L690.838 235.916 L686.463 235.916 Q681.533 235.916 679.658 234.087 Q677.783 232.235 677.783 227.374 L677.783 213.3 L674.658 213.3 L674.658 209.99 L677.783 209.99 L677.783 202.629 L682.065 202.629 Z" fill="#000000" fill-rule="nonzero" fill-opacity="1"></path><path clip-path="url(#clip640)" d="M711.463 213.971 Q710.746 213.555 709.889 213.37 Q709.056 213.161 708.037 213.161 Q704.426 213.161 702.482 215.522 Q700.561 217.86 700.561 222.258 L700.561 235.916 L696.278 235.916 L696.278 209.99 L700.561 209.99 L700.561 214.018 Q701.903 211.657 704.056 210.522 Q706.209 209.365 709.287 209.365 Q709.727 209.365 710.26 209.434 Q710.792 209.481 711.44 209.596 L711.463 213.971 Z" fill="#000000" fill-rule="nonzero" fill-opacity="1"></path><path clip-path="url(#clip640)" d="M727.713 222.883 Q722.551 222.883 720.56 224.064 Q718.57 225.244 718.57 228.092 Q718.57 230.36 720.051 231.703 Q721.556 233.022 724.125 233.022 Q727.667 233.022 729.797 230.522 Q731.949 227.999 731.949 223.832 L731.949 222.883 L727.713 222.883 M736.209 221.124 L736.209 235.916 L731.949 235.916 L731.949 231.981 Q730.491 234.342 728.315 235.476 Q726.139 236.587 722.991 236.587 Q719.01 236.587 716.648 234.365 Q714.311 232.119 714.311 228.369 Q714.311 223.994 717.227 221.772 Q720.167 219.55 725.977 219.55 L731.949 219.55 L731.949 219.133 Q731.949 216.194 730.005 214.596 Q728.084 212.976 724.588 212.976 Q722.366 212.976 720.26 213.508 Q718.153 214.041 716.209 215.106 L716.209 211.17 Q718.547 210.268 720.746 209.828 Q722.945 209.365 725.028 209.365 Q730.653 209.365 733.431 212.282 Q736.209 215.198 736.209 221.124 Z" fill="#000000" fill-rule="nonzero" fill-opacity="1"></path><path clip-path="url(#clip640)" d="M744.982 209.99 L749.241 209.99 L749.241 236.379 Q749.241 241.332 747.343 243.555 Q745.468 245.777 741.278 245.777 L739.658 245.777 L739.658 242.166 L740.792 242.166 Q743.222 242.166 744.102 241.031 Q744.982 239.92 744.982 236.379 L744.982 209.99 M744.982 199.897 L749.241 199.897 L749.241 205.291 L744.982 205.291 L744.982 199.897 Z" fill="#000000" fill-rule="nonzero" fill-opacity="1"></path><path clip-path="url(#clip640)" d="M780.329 221.888 L780.329 223.971 L760.745 223.971 Q761.023 228.369 763.384 230.684 Q765.769 232.976 770.005 232.976 Q772.458 232.976 774.75 232.374 Q777.065 231.772 779.333 230.569 L779.333 234.596 Q777.042 235.568 774.634 236.078 Q772.227 236.587 769.75 236.587 Q763.546 236.587 759.912 232.976 Q756.301 229.365 756.301 223.207 Q756.301 216.842 759.727 213.115 Q763.176 209.365 769.009 209.365 Q774.241 209.365 777.273 212.745 Q780.329 216.101 780.329 221.888 M776.069 220.638 Q776.023 217.143 774.102 215.059 Q772.204 212.976 769.056 212.976 Q765.491 212.976 763.338 214.99 Q761.208 217.004 760.884 220.661 L776.069 220.638 Z" fill="#000000" fill-rule="nonzero" fill-opacity="1"></path><path clip-path="url(#clip640)" d="M805.977 210.985 L805.977 214.967 Q804.171 213.971 802.342 213.485 Q800.537 212.976 798.685 212.976 Q794.542 212.976 792.25 215.615 Q789.958 218.231 789.958 222.976 Q789.958 227.721 792.25 230.36 Q794.542 232.976 798.685 232.976 Q800.537 232.976 802.342 232.49 Q804.171 231.981 805.977 230.985 L805.977 234.92 Q804.194 235.754 802.273 236.17 Q800.375 236.587 798.222 236.587 Q792.366 236.587 788.917 232.906 Q785.468 229.226 785.468 222.976 Q785.468 216.633 788.94 212.999 Q792.435 209.365 798.5 209.365 Q800.467 209.365 802.342 209.782 Q804.217 210.175 805.977 210.985 Z" fill="#000000" fill-rule="nonzero" fill-opacity="1"></path><path clip-path="url(#clip640)" d="M817.597 202.629 L817.597 209.99 L826.37 209.99 L826.37 213.3 L817.597 213.3 L817.597 227.374 Q817.597 230.545 818.453 231.448 Q819.333 232.351 821.995 232.351 L826.37 232.351 L826.37 235.916 L821.995 235.916 Q817.065 235.916 815.19 234.087 Q813.315 232.235 813.315 227.374 L813.315 213.3 L810.19 213.3 L810.19 209.99 L813.315 209.99 L813.315 202.629 L817.597 202.629 Z" fill="#000000" fill-rule="nonzero" fill-opacity="1"></path><path clip-path="url(#clip640)" d="M842.018 212.976 Q838.592 212.976 836.602 215.661 Q834.611 218.323 834.611 222.976 Q834.611 227.629 836.578 230.314 Q838.569 232.976 842.018 232.976 Q845.421 232.976 847.412 230.291 Q849.402 227.606 849.402 222.976 Q849.402 218.37 847.412 215.684 Q845.421 212.976 842.018 212.976 M842.018 209.365 Q847.574 209.365 850.745 212.976 Q853.916 216.587 853.916 222.976 Q853.916 229.342 850.745 232.976 Q847.574 236.587 842.018 236.587 Q836.44 236.587 833.268 232.976 Q830.12 229.342 830.12 222.976 Q830.12 216.587 833.268 212.976 Q836.44 209.365 842.018 209.365 Z" fill="#000000" fill-rule="nonzero" fill-opacity="1"></path><path clip-path="url(#clip640)" d="M875.999 213.971 Q875.282 213.555 874.425 213.37 Q873.592 213.161 872.574 213.161 Q868.962 213.161 867.018 215.522 Q865.097 217.86 865.097 222.258 L865.097 235.916 L860.814 235.916 L860.814 209.99 L865.097 209.99 L865.097 214.018 Q866.439 211.657 868.592 210.522 Q870.745 209.365 873.824 209.365 Q874.263 209.365 874.796 209.434 Q875.328 209.481 875.976 209.596 L875.999 213.971 Z" fill="#000000" fill-rule="nonzero" fill-opacity="1"></path><path clip-path="url(#clip640)" d="M891.254 238.323 Q889.448 242.953 887.736 244.365 Q886.023 245.777 883.152 245.777 L879.749 245.777 L879.749 242.212 L882.249 242.212 Q884.009 242.212 884.981 241.379 Q885.953 240.545 887.134 237.443 L887.898 235.499 L877.412 209.99 L881.925 209.99 L890.027 230.268 L898.129 209.99 L902.643 209.99 L891.254 238.323 Z" fill="#000000" fill-rule="nonzero" fill-opacity="1"></path><polyline clip-path="url(#clip640)" style="stroke:#e26f46; stroke-linecap:round; stroke-linejoin:round; stroke-width:4; stroke-opacity:1; fill:none" points="270.976,270.476 416.216,270.476 "></polyline>
<path clip-path="url(#clip640)" d="M440.423 253.196 L469.659 253.196 L469.659 257.131 L457.391 257.131 L457.391 287.756 L452.692 287.756 L452.692 257.131 L440.423 257.131 L440.423 253.196 Z" fill="#000000" fill-rule="nonzero" fill-opacity="1"></path><path clip-path="url(#clip640)" d="M482.043 265.811 Q481.326 265.395 480.469 265.21 Q479.636 265.001 478.617 265.001 Q475.006 265.001 473.062 267.362 Q471.141 269.7 471.141 274.098 L471.141 287.756 L466.858 287.756 L466.858 261.83 L471.141 261.83 L471.141 265.858 Q472.483 263.497 474.636 262.362 Q476.789 261.205 479.867 261.205 Q480.307 261.205 480.84 261.274 Q481.372 261.321 482.02 261.436 L482.043 265.811 Z" fill="#000000" fill-rule="nonzero" fill-opacity="1"></path><path clip-path="url(#clip640)" d="M486.071 277.524 L486.071 261.83 L490.33 261.83 L490.33 277.362 Q490.33 281.043 491.765 282.895 Q493.201 284.723 496.071 284.723 Q499.52 284.723 501.511 282.524 Q503.525 280.325 503.525 276.529 L503.525 261.83 L507.784 261.83 L507.784 287.756 L503.525 287.756 L503.525 283.774 Q501.974 286.135 499.914 287.293 Q497.877 288.427 495.168 288.427 Q490.701 288.427 488.386 285.649 Q486.071 282.871 486.071 277.524 M496.789 261.205 L496.789 261.205 Z" fill="#000000" fill-rule="nonzero" fill-opacity="1"></path><path clip-path="url(#clip640)" d="M538.733 273.728 L538.733 275.811 L519.15 275.811 Q519.427 280.209 521.788 282.524 Q524.173 284.816 528.409 284.816 Q530.862 284.816 533.154 284.214 Q535.469 283.612 537.737 282.409 L537.737 286.436 Q535.446 287.408 533.038 287.918 Q530.631 288.427 528.154 288.427 Q521.95 288.427 518.316 284.816 Q514.705 281.205 514.705 275.047 Q514.705 268.682 518.131 264.955 Q521.58 261.205 527.413 261.205 Q532.645 261.205 535.677 264.585 Q538.733 267.941 538.733 273.728 M534.474 272.478 Q534.427 268.983 532.506 266.899 Q530.608 264.816 527.46 264.816 Q523.895 264.816 521.742 266.83 Q519.612 268.844 519.288 272.501 L534.474 272.478 Z" fill="#000000" fill-rule="nonzero" fill-opacity="1"></path><path clip-path="url(#clip640)" d="M565.006 254.469 L565.006 261.83 L573.779 261.83 L573.779 265.14 L565.006 265.14 L565.006 279.214 Q565.006 282.385 565.862 283.288 Q566.742 284.191 569.404 284.191 L573.779 284.191 L573.779 287.756 L569.404 287.756 Q564.473 287.756 562.598 285.927 Q560.723 284.075 560.723 279.214 L560.723 265.14 L557.598 265.14 L557.598 261.83 L560.723 261.83 L560.723 254.469 L565.006 254.469 Z" fill="#000000" fill-rule="nonzero" fill-opacity="1"></path><path clip-path="url(#clip640)" d="M594.404 265.811 Q593.686 265.395 592.83 265.21 Q591.996 265.001 590.978 265.001 Q587.367 265.001 585.422 267.362 Q583.501 269.7 583.501 274.098 L583.501 287.756 L579.219 287.756 L579.219 261.83 L583.501 261.83 L583.501 265.858 Q584.844 263.497 586.996 262.362 Q589.149 261.205 592.228 261.205 Q592.668 261.205 593.2 261.274 Q593.732 261.321 594.381 261.436 L594.404 265.811 Z" fill="#000000" fill-rule="nonzero" fill-opacity="1"></path><path clip-path="url(#clip640)" d="M610.654 274.723 Q605.492 274.723 603.501 275.904 Q601.51 277.084 601.51 279.932 Q601.51 282.2 602.992 283.543 Q604.496 284.862 607.066 284.862 Q610.607 284.862 612.737 282.362 Q614.89 279.839 614.89 275.672 L614.89 274.723 L610.654 274.723 M619.149 272.964 L619.149 287.756 L614.89 287.756 L614.89 283.821 Q613.431 286.182 611.256 287.316 Q609.08 288.427 605.931 288.427 Q601.95 288.427 599.589 286.205 Q597.251 283.959 597.251 280.209 Q597.251 275.834 600.168 273.612 Q603.107 271.39 608.918 271.39 L614.89 271.39 L614.89 270.973 Q614.89 268.034 612.945 266.436 Q611.024 264.816 607.529 264.816 Q605.306 264.816 603.2 265.348 Q601.094 265.881 599.149 266.946 L599.149 263.01 Q601.487 262.108 603.686 261.668 Q605.885 261.205 607.969 261.205 Q613.593 261.205 616.371 264.122 Q619.149 267.038 619.149 272.964 Z" fill="#000000" fill-rule="nonzero" fill-opacity="1"></path><path clip-path="url(#clip640)" d="M627.922 261.83 L632.181 261.83 L632.181 288.219 Q632.181 293.172 630.283 295.395 Q628.408 297.617 624.218 297.617 L622.598 297.617 L622.598 294.006 L623.732 294.006 Q626.163 294.006 627.042 292.871 Q627.922 291.76 627.922 288.219 L627.922 261.83 M627.922 251.737 L632.181 251.737 L632.181 257.131 L627.922 257.131 L627.922 251.737 Z" fill="#000000" fill-rule="nonzero" fill-opacity="1"></path><path clip-path="url(#clip640)" d="M663.269 273.728 L663.269 275.811 L643.686 275.811 Q643.964 280.209 646.325 282.524 Q648.709 284.816 652.945 284.816 Q655.399 284.816 657.69 284.214 Q660.005 283.612 662.274 282.409 L662.274 286.436 Q659.982 287.408 657.575 287.918 Q655.167 288.427 652.69 288.427 Q646.487 288.427 642.853 284.816 Q639.241 281.205 639.241 275.047 Q639.241 268.682 642.667 264.955 Q646.116 261.205 651.95 261.205 Q657.181 261.205 660.214 264.585 Q663.269 267.941 663.269 273.728 M659.01 272.478 Q658.964 268.983 657.042 266.899 Q655.144 264.816 651.996 264.816 Q648.431 264.816 646.278 266.83 Q644.149 268.844 643.825 272.501 L659.01 272.478 Z" fill="#000000" fill-rule="nonzero" fill-opacity="1"></path><path clip-path="url(#clip640)" d="M688.917 262.825 L688.917 266.807 Q687.112 265.811 685.283 265.325 Q683.477 264.816 681.626 264.816 Q677.482 264.816 675.19 267.455 Q672.899 270.071 672.899 274.816 Q672.899 279.561 675.19 282.2 Q677.482 284.816 681.626 284.816 Q683.477 284.816 685.283 284.33 Q687.112 283.821 688.917 282.825 L688.917 286.76 Q687.135 287.594 685.213 288.01 Q683.315 288.427 681.163 288.427 Q675.306 288.427 671.857 284.746 Q668.408 281.066 668.408 274.816 Q668.408 268.473 671.88 264.839 Q675.376 261.205 681.44 261.205 Q683.408 261.205 685.283 261.622 Q687.158 262.015 688.917 262.825 Z" fill="#000000" fill-rule="nonzero" fill-opacity="1"></path><path clip-path="url(#clip640)" d="M700.537 254.469 L700.537 261.83 L709.311 261.83 L709.311 265.14 L700.537 265.14 L700.537 279.214 Q700.537 282.385 701.394 283.288 Q702.274 284.191 704.936 284.191 L709.311 284.191 L709.311 287.756 L704.936 287.756 Q700.005 287.756 698.13 285.927 Q696.255 284.075 696.255 279.214 L696.255 265.14 L693.13 265.14 L693.13 261.83 L696.255 261.83 L696.255 254.469 L700.537 254.469 Z" fill="#000000" fill-rule="nonzero" fill-opacity="1"></path><path clip-path="url(#clip640)" d="M724.959 264.816 Q721.533 264.816 719.542 267.501 Q717.551 270.163 717.551 274.816 Q717.551 279.469 719.519 282.154 Q721.51 284.816 724.959 284.816 Q728.361 284.816 730.352 282.131 Q732.343 279.446 732.343 274.816 Q732.343 270.21 730.352 267.524 Q728.361 264.816 724.959 264.816 M724.959 261.205 Q730.514 261.205 733.685 264.816 Q736.857 268.427 736.857 274.816 Q736.857 281.182 733.685 284.816 Q730.514 288.427 724.959 288.427 Q719.38 288.427 716.209 284.816 Q713.061 281.182 713.061 274.816 Q713.061 268.427 716.209 264.816 Q719.38 261.205 724.959 261.205 Z" fill="#000000" fill-rule="nonzero" fill-opacity="1"></path><path clip-path="url(#clip640)" d="M758.94 265.811 Q758.222 265.395 757.366 265.21 Q756.533 265.001 755.514 265.001 Q751.903 265.001 749.958 267.362 Q748.037 269.7 748.037 274.098 L748.037 287.756 L743.755 287.756 L743.755 261.83 L748.037 261.83 L748.037 265.858 Q749.38 263.497 751.533 262.362 Q753.685 261.205 756.764 261.205 Q757.204 261.205 757.736 261.274 Q758.269 261.321 758.917 261.436 L758.94 265.811 Z" fill="#000000" fill-rule="nonzero" fill-opacity="1"></path><path clip-path="url(#clip640)" d="M774.194 290.163 Q772.389 294.793 770.676 296.205 Q768.963 297.617 766.093 297.617 L762.69 297.617 L762.69 294.052 L765.19 294.052 Q766.949 294.052 767.921 293.219 Q768.894 292.385 770.074 289.283 L770.838 287.339 L760.352 261.83 L764.866 261.83 L772.968 282.108 L781.069 261.83 L785.583 261.83 L774.194 290.163 Z" fill="#000000" fill-rule="nonzero" fill-opacity="1"></path></svg>